<svg width="46" height="10" viewBox="0 0 46 10" fill="none" xmlns="http://www.w3.org/2000/svg">
<path d="M3.96 1.068C5.424 1.068 6.612 1.424 7.524 2.136C8.436 2.848 8.9 3.8 8.916 4.992V5.1C8.9 6.292 8.436 7.244 7.524 7.956C6.612 8.668 5.424 9.028 3.96 9.036C3.832 9.036 3.612 9.028 3.3 9.012C2.988 9.004 2.584 8.988 2.088 8.964C1.6 8.94 1.176 8.896 0.816 8.832C0.464 8.76 0.28 8.676 0.264 8.58C0.24 8.452 0.288 8.328 0.408 8.208C0.536 8.088 0.668 7.94 0.804 7.764C0.948 7.58 1.02 7.36 1.02 7.104V2.988C1.02 2.732 0.948 2.516 0.804 2.34C0.668 2.156 0.536 2.008 0.408 1.896C0.288 1.776 0.24 1.652 0.264 1.524C0.28 1.428 0.424 1.348 0.696 1.284C0.976 1.212 1.312 1.164 1.704 1.14C2.104 1.108 2.436 1.088 2.7 1.08C2.964 1.064 3.176 1.056 3.336 1.056C3.648 1.056 3.856 1.06 3.96 1.068ZM5.988 5.052V5.04C5.988 4.04 5.848 3.256 5.568 2.688C5.296 2.12 4.94 1.828 4.5 1.812C4.244 1.812 4.068 1.892 3.972 2.052C3.884 2.212 3.84 2.524 3.84 2.988V7.104C3.84 7.568 3.884 7.88 3.972 8.04C4.068 8.2 4.244 8.28 4.5 8.28C4.94 8.28 5.296 7.996 5.568 7.428C5.848 6.852 5.988 6.06 5.988 5.052Z" fill="#DD9E57"/>
<path d="M13.0961 3.108C14.0881 3.108 14.9321 3.392 15.6281 3.96C16.3321 4.52 16.6841 5.236 16.6841 6.108C16.6841 6.98 16.3321 7.7 15.6281 8.268C14.9321 8.828 14.0881 9.108 13.0961 9.108C12.0961 9.108 11.2481 8.828 10.5521 8.268C9.85613 7.708 9.50813 6.988 9.50813 6.108C9.50813 5.228 9.85613 4.508 10.5521 3.948C11.2481 3.388 12.0961 3.108 13.0961 3.108ZM13.7681 8.352C14.2561 8.24 14.2961 7.42 13.8881 5.892C13.5041 4.404 13.0321 3.728 12.4721 3.864C12.0001 3.976 11.9561 4.8 12.3401 6.336C12.5001 6.992 12.7041 7.512 12.9521 7.896C13.2081 8.272 13.4801 8.424 13.7681 8.352Z" fill="#2AA44D"/>
<path d="M20.5473 7.116C20.5473 7.324 20.5873 7.508 20.6673 7.668C20.7473 7.828 20.8353 7.948 20.9313 8.028C21.0353 8.1 21.1233 8.188 21.1953 8.292C21.2673 8.388 21.2993 8.488 21.2913 8.592C21.2673 8.896 20.5833 9.048 19.2393 9.048C19.0953 9.048 18.9313 9.044 18.7473 9.036C18.5713 9.028 18.3513 9.012 18.0873 8.988C17.8233 8.956 17.5993 8.908 17.4153 8.844C17.2313 8.772 17.1313 8.688 17.1153 8.592C17.0993 8.488 17.1273 8.388 17.1993 8.292C17.2793 8.188 17.3673 8.096 17.4633 8.016C17.5673 7.936 17.6633 7.816 17.7513 7.656C17.8393 7.496 17.8833 7.316 17.8833 7.116V5.904C17.8833 5.2 17.7473 4.82 17.4753 4.764C17.3313 4.74 17.2233 4.684 17.1513 4.596C17.0873 4.5 17.0793 4.404 17.1273 4.308C17.1753 4.204 17.2793 4.128 17.4393 4.08C17.9513 3.912 18.3393 3.768 18.6033 3.648C18.8673 3.52 19.1633 3.336 19.4913 3.096C19.6433 2.992 19.7713 2.94 19.8753 2.94C20.1153 2.94 20.2953 3.252 20.4153 3.876C20.7993 2.98 21.4113 2.212 22.2513 1.572C23.0913 0.924 24.1393 0.556 25.3953 0.468C25.8593 0.436 26.2273 0.516 26.4993 0.707999C26.7713 0.891999 26.9073 1.132 26.9073 1.428C26.9153 1.692 26.8153 1.916 26.6073 2.1C26.3993 2.284 26.1353 2.352 25.8153 2.304C25.6793 2.288 25.4873 2.232 25.2393 2.136C24.9913 2.04 24.7633 1.992 24.5553 1.992C24.3953 1.992 24.2233 2.008 24.0393 2.04C23.6473 2.104 23.2633 2.236 22.8873 2.436C22.5113 2.628 22.1513 2.892 21.8073 3.228C21.4633 3.556 21.1753 3.988 20.9433 4.524C20.7193 5.06 20.5873 5.656 20.5473 6.312V7.116ZM27.9513 6.576C28.0073 6.472 28.0953 6.42 28.2153 6.42C28.3113 6.42 28.3913 6.46 28.4553 6.54C28.5273 6.62 28.5473 6.716 28.5153 6.828C28.3393 7.508 27.9393 8.06 27.3153 8.484C26.6993 8.9 25.9873 9.108 25.1793 9.108C24.2273 9.108 23.4193 8.824 22.7553 8.256C22.0913 7.688 21.7593 6.964 21.7593 6.084C21.7593 5.228 22.0673 4.52 22.6833 3.96C23.2993 3.4 24.0633 3.1 24.9753 3.06C26.0153 3.012 26.7953 3.152 27.3153 3.48C27.8433 3.808 28.1473 4.208 28.2273 4.68C28.2753 5.008 28.2233 5.304 28.0713 5.568C27.9273 5.832 27.7153 6.04 27.4353 6.192C27.1633 6.336 26.8673 6.448 26.5473 6.528C26.2353 6.6 25.9233 6.636 25.6113 6.636C25.2513 6.636 24.9713 6.588 24.7713 6.492C24.9793 6.812 25.2313 7.06 25.5273 7.236C25.8233 7.404 26.1353 7.48 26.4633 7.464C27.0953 7.408 27.5913 7.112 27.9513 6.576ZM25.0833 3.444C24.9073 3.46 24.7553 3.564 24.6273 3.756C24.4993 3.948 24.4113 4.16 24.3633 4.392C24.3153 4.624 24.2993 4.844 24.3153 5.052C24.3233 5.404 24.3993 5.74 24.5433 6.06C24.6393 6.084 24.7353 6.096 24.8313 6.096C25.1433 6.096 25.3993 5.968 25.5993 5.712C25.7993 5.456 25.8913 5.108 25.8753 4.668C25.8673 4.348 25.7913 4.06 25.6473 3.804C25.5033 3.54 25.3153 3.42 25.0833 3.444Z" fill="#EFD7BD"/>
<path d="M40.1709 7.116C40.1709 7.324 40.2109 7.508 40.2909 7.668C40.3709 7.828 40.4589 7.948 40.5549 8.028C40.6589 8.1 40.7469 8.188 40.8189 8.292C40.8909 8.388 40.9229 8.488 40.9149 8.592C40.8909 8.896 40.1909 9.048 38.8149 9.048C38.5749 9.048 38.3669 9.008 38.1909 8.928C38.0229 8.848 37.8909 8.752 37.7949 8.64C37.7069 8.52 37.6349 8.368 37.5789 8.184C37.5309 8 37.4989 7.832 37.4829 7.68C37.4669 7.52 37.4589 7.336 37.4589 7.128V5.904C37.4589 5.16 37.4229 4.688 37.3509 4.488C37.2549 4.264 37.1109 4.148 36.9189 4.14C36.5109 4.148 36.2989 4.648 36.2829 5.64V7.116C36.2829 7.324 36.3229 7.508 36.4029 7.668C36.4829 7.828 36.5709 7.948 36.6669 8.028C36.7629 8.1 36.8469 8.188 36.9189 8.292C36.9989 8.388 37.0349 8.488 37.0269 8.592C37.0029 8.896 36.3029 9.048 34.9269 9.048C34.6869 9.048 34.4789 9.008 34.3029 8.928C34.1349 8.848 34.0029 8.752 33.9069 8.64C33.8189 8.52 33.7469 8.368 33.6909 8.184C33.6429 8 33.6109 7.832 33.5949 7.68C33.5789 7.52 33.5709 7.336 33.5709 7.128V5.904C33.5709 5.872 33.5709 5.828 33.5709 5.772C33.5709 5.516 33.5669 5.32 33.5589 5.184C33.5509 5.04 33.5309 4.876 33.4989 4.692C33.4749 4.5 33.4229 4.36 33.3429 4.272C33.2629 4.184 33.1589 4.14 33.0309 4.14C32.6389 4.148 32.4269 4.624 32.3949 5.568V7.116C32.3949 7.324 32.4349 7.508 32.5149 7.668C32.5949 7.828 32.6829 7.948 32.7789 8.028C32.8829 8.1 32.9709 8.188 33.0429 8.292C33.1149 8.388 33.1469 8.488 33.1389 8.592C33.1149 8.896 32.4309 9.048 31.0869 9.048C30.9429 9.048 30.7789 9.044 30.5949 9.036C30.4189 9.028 30.1989 9.012 29.9349 8.988C29.6709 8.956 29.4469 8.908 29.2629 8.844C29.0789 8.772 28.9789 8.688 28.9629 8.592C28.9469 8.488 28.9749 8.388 29.0469 8.292C29.1269 8.188 29.2149 8.1 29.3109 8.028C29.4149 7.948 29.5109 7.828 29.5989 7.668C29.6869 7.508 29.7309 7.328 29.7309 7.128V5.904C29.7309 5.2 29.5949 4.824 29.3229 4.776C29.1789 4.744 29.0709 4.684 28.9989 4.596C28.9349 4.5 28.9269 4.404 28.9749 4.308C29.0229 4.204 29.1269 4.128 29.2869 4.08C29.7989 3.912 30.1869 3.768 30.4509 3.648C30.7149 3.52 31.0109 3.336 31.3389 3.096C31.4909 2.992 31.6189 2.94 31.7229 2.94C31.9549 2.94 32.1429 3.292 32.2869 3.996C32.2949 4.044 32.3029 4.08 32.3109 4.104C32.6229 3.52 33.1229 3.184 33.8109 3.096C34.3949 3.024 34.8949 3.08 35.3109 3.264C35.7349 3.44 36.0229 3.728 36.1749 4.128C36.4629 3.512 36.9429 3.168 37.6149 3.096C38.3589 3.016 38.9709 3.156 39.4509 3.516C39.9309 3.868 40.1709 4.356 40.1709 4.98V7.116ZM44.444 2.628C44.132 2.876 43.752 3 43.304 3C42.856 3 42.472 2.876 42.152 2.628C41.84 2.372 41.684 2.064 41.684 1.704C41.684 1.352 41.84 1.052 42.152 0.804C42.472 0.548 42.856 0.42 43.304 0.42C43.744 0.42 44.12 0.548 44.432 0.804C44.752 1.052 44.912 1.352 44.912 1.704C44.912 2.064 44.756 2.372 44.444 2.628ZM44.768 7.116C44.768 7.324 44.804 7.508 44.876 7.668C44.956 7.828 45.044 7.948 45.14 8.028C45.236 8.1 45.316 8.188 45.38 8.292C45.452 8.388 45.484 8.488 45.476 8.592C45.452 8.896 44.78 9.048 43.46 9.048C43.324 9.048 43.168 9.044 42.992 9.036C42.824 9.028 42.612 9.012 42.356 8.988C42.1 8.956 41.884 8.908 41.708 8.844C41.532 8.772 41.436 8.688 41.42 8.592C41.404 8.464 41.456 8.344 41.576 8.232C41.696 8.112 41.824 7.964 41.96 7.788C42.096 7.604 42.164 7.384 42.164 7.128V5.904C42.164 5.2 42.032 4.82 41.768 4.764C41.624 4.74 41.52 4.684 41.456 4.596C41.4 4.5 41.392 4.404 41.432 4.308C41.48 4.204 41.58 4.128 41.732 4.08C42.364 3.872 43.144 3.64 44.072 3.384C44.168 3.36 44.248 3.348 44.312 3.348C44.44 3.348 44.54 3.392 44.612 3.48C44.684 3.56 44.728 3.668 44.744 3.804C44.768 3.932 44.78 4.084 44.78 4.26C44.788 4.428 44.784 4.6 44.768 4.776V7.116Z" fill="#3A99AA"/>
</svg>
