<?xml version="1.0" standalone="no"?><svg xmlns="http://www.w3.org/2000/svg" viewBox="0 0 1440 320"><path fill="#b6e7ff" fill-opacity="1" d="M0,96L34.3,101.3C68.6,107,137,117,206,112C274.3,107,343,85,411,112C480,139,549,213,617,250.7C685.7,288,754,288,823,272C891.4,256,960,224,1029,224C1097.1,224,1166,256,1234,256C1302.9,256,1371,224,1406,208L1440,192L1440,320L1405.7,320C1371.4,320,1303,320,1234,320C1165.7,320,1097,320,1029,320C960,320,891,320,823,320C754.3,320,686,320,617,320C548.6,320,480,320,411,320C342.9,320,274,320,206,320C137.1,320,69,320,34,320L0,320Z"></path></svg>